<svg width="52" height="52" viewBox="0 0 52 52" fill="none" xmlns="http://www.w3.org/2000/svg">
<g clip-path="url(#clip0_392_3473)">
<path d="M4 4H48V48H4V4ZM44.3957 37.506C44.0748 35.4985 42.7677 33.8118 38.8902 32.2388C37.5408 31.6063 36.0412 31.1663 35.5957 30.1488C35.4288 29.5438 35.4032 29.2138 35.5113 28.8563C35.7863 27.672 37.1888 27.3163 38.2888 27.6463C39.0038 27.8663 39.6638 28.4163 40.0782 29.2963C41.9738 28.057 41.9738 28.057 43.2957 27.2338C42.8007 26.4638 42.555 26.132 42.2213 25.8038C41.0663 24.5113 39.5282 23.8513 37.0257 23.9082L35.7332 24.0713C34.4938 24.3738 33.3132 25.0338 32.5982 25.9138C30.5082 28.2807 31.1113 32.4057 33.6413 34.1107C36.1438 35.9807 39.8032 36.3913 40.2707 38.1532C40.7107 40.2982 38.6757 40.9857 36.6663 40.7382C35.1795 40.4082 34.3563 39.6638 33.4488 38.2888L30.0938 40.2157C30.4788 41.0957 30.9188 41.4788 31.5788 42.2488C34.7688 45.4682 42.7438 45.3032 44.1757 40.4082C44.2288 40.2432 44.6157 39.1157 44.3113 37.3832L44.3957 37.506ZM27.9268 24.2235H23.8055C23.8055 27.7765 23.789 31.3075 23.789 34.866C23.789 37.1247 23.9045 39.1982 23.536 39.8362C22.931 41.0993 21.3727 40.938 20.665 40.7162C19.939 40.3568 19.5705 39.8618 19.1433 39.1487C19.0278 38.9562 18.9417 38.7893 18.9105 38.7893L15.5647 40.8518C16.1238 42.0068 16.9397 43.0005 17.992 43.633C19.5595 44.568 21.666 44.8705 23.8715 44.3755C25.307 43.9612 26.5445 43.1087 27.1917 41.7887C28.1267 40.0837 27.9287 37.9937 27.9195 35.6543C27.9415 31.8887 27.9195 28.1212 27.9195 24.3262L27.9268 24.2235Z" fill="#191916"/>
</g>
<defs>
<clipPath id="clip0_392_3473">
<rect width="44" height="44" fill="white" transform="translate(4 4)"/>
</clipPath>
</defs>
</svg>
